/* XPM */
static char *_fbdbda74c7a4e4590ff4bb48582ff938yTW6o7ROhbDkB4O[] = {
/* columns rows colors chars-per-pixel */
"64 64 20 1 ",
"  c #47704C",
". c #34C300",
"X c #34C300",
"o c #34C300",
"O c #34C300",
"+ c #34C300",
"@ c #34C300",
"# c #34C300",
"$ c #34C300",
"% c #34C300",
"& c #34C300",
"* c #34C300",
"= c #34C300",
"- c #34C300",
"; c None",
": c #34C300",
"> c #34C300",
", c #34C300",
"< c #34C300",
"1 c #34C300",
/* pixels */
"                                                                ",
"                                                                ",
"                                                                ",
"                                                                ",
"                        XOo@%#$#%@-OX                           ",
"                     >-$&.+;111111+.&<@>                        ",
"                   O#&+111111111111111;:$o                      ",
"                 O$.111111111111111111111=<o                    ",
"               X%:1111111111111111111111111.#>                  ",
"              O*;1111111111111111111111111111&o                 ",
"             o:1111111111111111111111111111111.@                ",
"            @.111111111111111111111111111111111=%               ",
"           -.11111111111111111111111111111111111+%              ",
"          o.1111111111111111111111111111111111111+@             ",
"         O:111111111111111111111111111111111111111.o            ",
"        X*11111111111111111111111111111111111111111&>           ",
"        %;111111111111111111111111111111111111111111$           ",
"       O:1111111111111111111111111111111111111111111=o          ",
"       $111111111111111111111111111111111111111111111,X         ",
"      O.111111111111111111111111111111111111111111111=-         ",
"      #11111111111111111111111111111111111111111111111*         ",
"     >&11111111111111111111111111111111111111111111111.O        ",
"     -+111111111111111111111111111111111111111111111111%        ",
"     $1111111111111111111111111111111111111111111111111,        ",
"    X&1111111111111111111111111111111111111111111111111:>       ",
"    O.1111111111111111111111111111111111111111111111111+o       ",
"    o+11111111111111111111111111111111111111111111111111%       ",
"    @;11111111111111111111111111111111111111111111111111#       ",
"    %111111111111111111111111111111111111111111111111111<       ",
"    #111111111111111111111111111111111111111111111111111*       ",
"    $111111111111111111111111111111111111111111111111111*       ",
"    #111111111111111111111111111111111111111111111111111*       ",
"    #111111111111111111111111111111111111111111111111111<       ",
"    @111111111111111111111111111111111111111111111111111$       ",
"    -+11111111111111111111111111111111111111111111111111%       ",
"    O.1111111111111111111111111111111111111111111111111+-       ",
"    X&1111111111111111111111111111111111111111111111111.O       ",
"     <1111111111111111111111111111111111111111111111111,X       ",
"     @;111111111111111111111111111111111111111111111111#        ",
"     >:11111111111111111111111111111111111111111111111=o        ",
"      $11111111111111111111111111111111111111111111111,X        ",
"      o=111111111111111111111111111111111111111111111;@         ",
"       <111111111111111111111111111111111111111111111&X         ",
"       o.1111111111111111111111111111111111111111111+-          ",
"        #1111111111111111111111111111111111111111111*X          ",
"        >&11111111111111111111111111111111111111111:O           ",
"         o.111111111111111111111111111111111111111=@            ",
"          @=1111111111111111111111111111111111111;#             ",
"           %+11111111111111111111111111111111111;$X             ",
"            %=111111111111111111111111111111111;$X              ",
"             @.1111111111111111111111111111111=#X               ",
"              o&11111111111111111111111111111:@                 ",
"               >$=1111111111111111111111111+*O                  ",
"                 o,+111111111111111111111+&-X                   ",
"                  X-*.11111111111111111=,@X                     ",
"                     O%,:+111111111+.,#oX                       ",
"                        >o@#<***<$%-OX                          ",
"                                                                ",
"                                                                ",
"                                                                ",
"                                                                ",
"                                                                ",
"                                                                ",
"                                                                "
};
